<svg width="32" height="32" viewBox="0 0 32 32" fill="none" xmlns="http://www.w3.org/2000/svg">
  <rect width="32" height="32" rx="8" fill="#00635B"/>
  <path d="M8 16C8 11.582 11.582 8 16 8C18.616 8 20.92 9.277 22.29 11.267L19.267 13.267C18.519 12.185 17.35 11.5 16 11.5C13.544 11.5 11.5 13.544 11.5 16C11.5 18.456 13.544 20.5 16 20.5C17.35 20.5 18.519 19.815 19.267 18.733L22.29 20.733C20.92 22.723 18.616 24 16 24C11.582 24 8 20.418 8 16Z" fill="white"/>
  <path d="M16 16C16 11.582 19.582 8 24 8C26.616 8 28.92 9.277 30.29 11.267L27.267 13.267C26.519 12.185 25.35 11.5 24 11.5C21.544 11.5 19.5 13.544 19.5 16C19.5 18.456 21.544 20.5 24 20.5C25.35 20.5 26.519 19.815 27.267 18.733L30.29 20.733C28.92 22.723 26.616 24 24 24C19.582 24 16 20.418 16 16Z" fill="white"/>
</svg>